<?xml version="1.0" encoding="UTF-8" standalone="no"?>
<svg
   version="1.1"
   width="256"
   height="192"
   viewBox="0 32 256 192"
   xml:space="preserve"
   id="svg49"
   sodipodi:docname="email.svg"
   inkscape:version="1.1.2 (0a00cf5339, 2022-02-04, custom)"
   xmlns:inkscape="http://www.inkscape.org/namespaces/inkscape"
   xmlns:sodipodi="http://sodipodi.sourceforge.net/DTD/sodipodi-0.dtd"
   xmlns="http://www.w3.org/2000/svg"
   xmlns:svg="http://www.w3.org/2000/svg"><sodipodi:namedview
   id="namedview51"
   pagecolor="#ffffff"
   bordercolor="#666666"
   borderopacity="1.0"
   inkscape:pageshadow="2"
   inkscape:pageopacity="0.0"
   inkscape:pagecheckerboard="0"
   showgrid="false"
   viewbox-y="32"
   inkscape:zoom="2.6558044"
   inkscape:cx="38.029909"
   inkscape:cy="148.3543"
   inkscape:window-width="2560"
   inkscape:window-height="1494"
   inkscape:window-x="-11"
   inkscape:window-y="-11"
   inkscape:window-maximized="1"
   inkscape:current-layer="g45" />
<desc
   id="desc31">Created with Fabric.js 1.7.22</desc>
<defs
   id="defs33">
</defs>
<g
   transform="matrix(0.72,0,0,0.72,128,128)"
   id="g47">
	<g
   style="opacity:1;fill:none;fill-rule:nonzero;stroke:none;stroke-width:0;stroke-linecap:butt;stroke-linejoin:miter;stroke-miterlimit:10;stroke-dasharray:none"
   transform="matrix(3.89,0,0,3.89,-175.05,-175.05)"
   id="g45">
	<path
   d="M 75.546,78.738 H 14.455 C 6.484,78.738 0,72.254 0,64.283 V 25.716 C 0,17.746 6.485,11.261 14.455,11.261 h 61.091 c 7.97,0 14.454,6.485 14.454,14.455 v 38.567 c 0,7.971 -6.484,14.455 -14.454,14.455 z M 14.455,15.488 c -5.64,0 -10.228,4.588 -10.228,10.228 v 38.567 c 0,5.64 4.588,10.229 10.228,10.229 h 61.091 c 5.64,0 10.228,-4.589 10.228,-10.229 V 25.716 c 0,-5.64 -4.588,-10.228 -10.228,-10.228 H 14.455 Z"
   style="opacity:1;fill:#ffffff;fill-rule:nonzero;stroke:none;stroke-width:1;stroke-linecap:butt;stroke-linejoin:miter;stroke-miterlimit:10;stroke-dasharray:none"
   stroke-linecap="round"
   id="path35" />
	<path
   d="M 11.044,25.917 C 21.848,36.445 32.652,46.972 43.456,57.5 45.47,59.462 48.561,56.378 46.544,54.412 35.74,43.885 24.936,33.357 14.132,22.83 12.118,20.867 9.027,23.952 11.044,25.917 Z"
   style="opacity:1;fill:#ffffff;fill-rule:nonzero;stroke:none;stroke-width:1;stroke-linecap:butt;stroke-linejoin:miter;stroke-miterlimit:10;stroke-dasharray:none"
   stroke-linecap="round"
   id="path37" />
	<path
   d="M 46.544,57.5 C 57.348,46.973 68.152,36.445 78.956,25.918 80.972,23.953 77.883,20.867 75.868,22.83 65.064,33.357 54.26,43.885 43.456,54.412 c -2.016,1.965 1.073,5.051 3.088,3.088 z"
   style="opacity:1;fill:#ffffff;fill-rule:nonzero;stroke:none;stroke-width:1;stroke-linecap:butt;stroke-linejoin:miter;stroke-miterlimit:10;stroke-dasharray:none"
   stroke-linecap="round"
   id="path39" />
	<path
   d="M 78.837,64.952 C 71.648,58.134 65.060323,52.898097 57.871323,46.080097 55.832323,44.147097 52.137,45.648 54.181,47.587 61.37,54.405 68.56,61.222 75.749,68.04 c 2.039,1.933 5.132,-1.15 3.088,-3.088 z"
   style="opacity:1;fill:#ffffff;fill-rule:nonzero;stroke:none;stroke-width:1;stroke-linecap:butt;stroke-linejoin:miter;stroke-miterlimit:10;stroke-dasharray:none"
   stroke-linecap="round"
   id="path41"
   sodipodi:nodetypes="ccccc" />
	<path
   d="m 14.446,68.039 c 7.189,-6.818 14.379,-13.635 21.568,-20.453 2.043,-1.938 -1.048,-5.022 -3.088,-3.088 -7.189,6.818 -14.379,13.635 -21.568,20.453 -2.043,1.938 1.048,5.023 3.088,3.088 z"
   style="opacity:1;fill:#ffffff;fill-rule:nonzero;stroke:none;stroke-width:1;stroke-linecap:butt;stroke-linejoin:miter;stroke-miterlimit:10;stroke-dasharray:none"
   stroke-linecap="round"
   id="path43" />
<path
   d="M 75.546,78.738 H 14.455 C 6.484,78.738 0,72.254 0,64.283 V 25.716 C 0,17.746 6.485,11.261 14.455,11.261 h 61.091 c 7.97,0 14.454,6.485 14.454,14.455 v 38.567 c 0,7.971 -6.484,14.455 -14.454,14.455 z M 14.455,15.488 c -5.64,0 -10.228,4.588 -10.228,10.228 v 38.567 c 0,5.64 4.588,10.229 10.228,10.229 h 61.091 c 5.64,0 10.228,-4.589 10.228,-10.229 V 25.716 c 0,-5.64 -4.588,-10.228 -10.228,-10.228 H 14.455 Z"
   style="opacity:1;fill:#ffffff;fill-rule:nonzero;stroke:none;stroke-width:1;stroke-linecap:butt;stroke-linejoin:miter;stroke-miterlimit:10;stroke-dasharray:none"
   stroke-linecap="round"
   id="path983" /><path
   d="M 11.044,25.917 C 21.848,36.445 32.652,46.972 43.456,57.5 45.47,59.462 48.561,56.378 46.544,54.412 35.74,43.885 24.936,33.357 14.132,22.83 12.118,20.867 9.027,23.952 11.044,25.917 Z"
   style="opacity:1;fill:#ffffff;fill-rule:nonzero;stroke:none;stroke-width:1;stroke-linecap:butt;stroke-linejoin:miter;stroke-miterlimit:10;stroke-dasharray:none"
   stroke-linecap="round"
   id="path985" /><path
   d="M 46.544,57.5 C 57.348,46.973 68.152,36.445 78.956,25.918 80.972,23.953 77.883,20.867 75.868,22.83 65.064,33.357 54.26,43.885 43.456,54.412 c -2.016,1.965 1.073,5.051 3.088,3.088 z"
   style="opacity:1;fill:#ffffff;fill-rule:nonzero;stroke:none;stroke-width:1;stroke-linecap:butt;stroke-linejoin:miter;stroke-miterlimit:10;stroke-dasharray:none"
   stroke-linecap="round"
   id="path987" /><path
   d="M 78.837,64.952 C 71.648,58.134 65.060323,52.898097 57.871323,46.080097 55.832323,44.147097 52.137,45.648 54.181,47.587 61.37,54.405 68.56,61.222 75.749,68.04 c 2.039,1.933 5.132,-1.15 3.088,-3.088 z"
   style="opacity:1;fill:#ffffff;fill-rule:nonzero;stroke:none;stroke-width:1;stroke-linecap:butt;stroke-linejoin:miter;stroke-miterlimit:10;stroke-dasharray:none"
   stroke-linecap="round"
   id="path989"
   sodipodi:nodetypes="ccccc" /><path
   d="m 14.446,68.039 c 7.189,-6.818 14.379,-13.635 21.568,-20.453 2.043,-1.938 -1.048,-5.022 -3.088,-3.088 -7.189,6.818 -14.379,13.635 -21.568,20.453 -2.043,1.938 1.048,5.023 3.088,3.088 z"
   style="opacity:1;fill:#ffffff;fill-rule:nonzero;stroke:none;stroke-width:1;stroke-linecap:butt;stroke-linejoin:miter;stroke-miterlimit:10;stroke-dasharray:none"
   stroke-linecap="round"
   id="path991" /><path
   d="M 75.546,78.738 H 14.455 C 6.484,78.738 0,72.254 0,64.283 V 25.716 C 0,17.746 6.485,11.261 14.455,11.261 h 61.091 c 7.97,0 14.454,6.485 14.454,14.455 v 38.567 c 0,7.971 -6.484,14.455 -14.454,14.455 z M 14.455,15.488 c -5.64,0 -10.228,4.588 -10.228,10.228 v 38.567 c 0,5.64 4.588,10.229 10.228,10.229 h 61.091 c 5.64,0 10.228,-4.589 10.228,-10.229 V 25.716 c 0,-5.64 -4.588,-10.228 -10.228,-10.228 H 14.455 Z"
   style="opacity:1;fill:#ffffff;fill-rule:nonzero;stroke:none;stroke-width:1;stroke-linecap:butt;stroke-linejoin:miter;stroke-miterlimit:10;stroke-dasharray:none"
   stroke-linecap="round"
   id="path1038" /><path
   d="M 75.546,78.023918 H 14.455 c -7.971,0 -14.455,-6.484 -14.455,-14.455 v -38.567 c 0,-7.97 6.485,-14.455 14.455,-14.455 h 61.091 c 7.97,0 14.454,6.485 14.454,14.455 v 38.567 c 0,7.971 -6.484,14.455 -14.454,14.455 z m -61.091,-63.25 c -5.64,0 -10.228,4.588 -10.228,10.228 v 38.567 c 0,5.64 4.588,10.229 10.228,10.229 h 61.091 c 5.64,0 10.228,-4.589 10.228,-10.229 v -38.567 c 0,-5.64 -4.588,-10.228 -10.228,-10.228 H 14.455 Z"
   style="opacity:1;fill:#ffffff;fill-rule:nonzero;stroke:none;stroke-width:1;stroke-linecap:butt;stroke-linejoin:miter;stroke-miterlimit:10;stroke-dasharray:none"
   stroke-linecap="round"
   id="path1040" /><path
   d="m 11.044,25.202918 c 10.804,10.528 21.608,21.055 32.412,31.583 2.014,1.962 5.105,-1.122 3.088,-3.088 -10.804,-10.527 -21.608,-21.055 -32.412,-31.582 -2.014,-1.963 -5.105,1.122 -3.088,3.087 z"
   style="opacity:1;fill:#ffffff;fill-rule:nonzero;stroke:none;stroke-width:1;stroke-linecap:butt;stroke-linejoin:miter;stroke-miterlimit:10;stroke-dasharray:none"
   stroke-linecap="round"
   id="path1042" /><path
   d="m 46.544,56.785918 c 10.804,-10.527 21.608,-21.055 32.412,-31.582 2.016,-1.965 -1.073,-5.051 -3.088,-3.088 -10.804,10.527 -21.608,21.055 -32.412,31.582 -2.016,1.965 1.073,5.051 3.088,3.088 z"
   style="opacity:1;fill:#ffffff;fill-rule:nonzero;stroke:none;stroke-width:1;stroke-linecap:butt;stroke-linejoin:miter;stroke-miterlimit:10;stroke-dasharray:none"
   stroke-linecap="round"
   id="path1044" /><path
   d="m 78.837,64.237918 c -7.189,-6.818 -13.776677,-12.053903 -20.965677,-18.871903 -2.039,-1.933 -5.734323,-0.432097 -3.690323,1.506903 7.189,6.818 14.379,13.635 21.568,20.453 2.039,1.933 5.132,-1.15 3.088,-3.088 z"
   style="opacity:1;fill:#ffffff;fill-rule:nonzero;stroke:none;stroke-width:1;stroke-linecap:butt;stroke-linejoin:miter;stroke-miterlimit:10;stroke-dasharray:none"
   stroke-linecap="round"
   id="path1046"
   sodipodi:nodetypes="ccccc" /><path
   d="m 14.446,67.324918 c 7.189,-6.818 14.379,-13.635 21.568,-20.453 2.043,-1.938 -1.048,-5.022 -3.088,-3.088 -7.189,6.818 -14.379,13.635 -21.568,20.453 -2.043,1.938 1.048,5.023 3.088,3.088 z"
   style="opacity:1;fill:#ffffff;fill-rule:nonzero;stroke:none;stroke-width:1;stroke-linecap:butt;stroke-linejoin:miter;stroke-miterlimit:10;stroke-dasharray:none"
   stroke-linecap="round"
   id="path1048" /><path
   d="M 75.546,78.023918 H 14.455 c -7.971,0 -14.455,-6.484 -14.455,-14.455 v -38.567 c 0,-7.97 6.485,-14.455 14.455,-14.455 h 61.091 c 7.97,0 14.454,6.485 14.454,14.455 v 38.567 c 0,7.971 -6.484,14.455 -14.454,14.455 z m -61.091,-63.25 c -5.64,0 -10.228,4.588 -10.228,10.228 v 38.567 c 0,5.64 4.588,10.229 10.228,10.229 h 61.091 c 5.64,0 10.228,-4.589 10.228,-10.229 v -38.567 c 0,-5.64 -4.588,-10.228 -10.228,-10.228 H 14.455 Z"
   style="opacity:1;fill:#ffffff;fill-rule:nonzero;stroke:none;stroke-width:1;stroke-linecap:butt;stroke-linejoin:miter;stroke-miterlimit:10;stroke-dasharray:none"
   stroke-linecap="round"
   id="path1050" /><path
   d="m 11.044,25.202918 c 10.804,10.528 21.608,21.055 32.412,31.583 2.014,1.962 5.105,-1.122 3.088,-3.088 -10.804,-10.527 -21.608,-21.055 -32.412,-31.582 -2.014,-1.963 -5.105,1.122 -3.088,3.087 z"
   style="opacity:1;fill:#ffffff;fill-rule:nonzero;stroke:none;stroke-width:1;stroke-linecap:butt;stroke-linejoin:miter;stroke-miterlimit:10;stroke-dasharray:none"
   stroke-linecap="round"
   id="path1052" /><path
   d="m 46.544,56.785918 c 10.804,-10.527 21.608,-21.055 32.412,-31.582 2.016,-1.965 -1.073,-5.051 -3.088,-3.088 -10.804,10.527 -21.608,21.055 -32.412,31.582 -2.016,1.965 1.073,5.051 3.088,3.088 z"
   style="opacity:1;fill:#ffffff;fill-rule:nonzero;stroke:none;stroke-width:1;stroke-linecap:butt;stroke-linejoin:miter;stroke-miterlimit:10;stroke-dasharray:none"
   stroke-linecap="round"
   id="path1054" /><path
   d="m 78.837,64.237918 c -7.189,-6.818 -13.776677,-12.053903 -20.965677,-18.871903 -2.039,-1.933 -5.734323,-0.432097 -3.690323,1.506903 7.189,6.818 14.379,13.635 21.568,20.453 2.039,1.933 5.132,-1.15 3.088,-3.088 z"
   style="opacity:1;fill:#ffffff;fill-rule:nonzero;stroke:none;stroke-width:1;stroke-linecap:butt;stroke-linejoin:miter;stroke-miterlimit:10;stroke-dasharray:none"
   stroke-linecap="round"
   id="path1056"
   sodipodi:nodetypes="ccccc" /><path
   d="m 14.446,67.324918 c 7.189,-6.818 14.379,-13.635 21.568,-20.453 2.043,-1.938 -1.048,-5.022 -3.088,-3.088 -7.189,6.818 -14.379,13.635 -21.568,20.453 -2.043,1.938 1.048,5.023 3.088,3.088 z"
   style="opacity:1;fill:#ffffff;fill-rule:nonzero;stroke:none;stroke-width:1;stroke-linecap:butt;stroke-linejoin:miter;stroke-miterlimit:10;stroke-dasharray:none"
   stroke-linecap="round"
   id="path1058" /><path
   d="M 75.546,78.023918 H 14.455 c -7.971,0 -14.455,-6.484 -14.455,-14.455 v -38.567 c 0,-7.97 6.485,-14.455 14.455,-14.455 h 61.091 c 7.97,0 14.454,6.485 14.454,14.455 v 38.567 c 0,7.971 -6.484,14.455 -14.454,14.455 z m -61.091,-63.25 c -5.64,0 -10.228,4.588 -10.228,10.228 v 38.567 c 0,5.64 4.588,10.229 10.228,10.229 h 61.091 c 5.64,0 10.228,-4.589 10.228,-10.229 v -38.567 c 0,-5.64 -4.588,-10.228 -10.228,-10.228 H 14.455 Z"
   style="opacity:1;fill:#ffffff;fill-rule:nonzero;stroke:none;stroke-width:1;stroke-linecap:butt;stroke-linejoin:miter;stroke-miterlimit:10;stroke-dasharray:none"
   stroke-linecap="round"
   id="path1060" /><path
   d="m 74.831918,78.738 h -61.091 c -7.9709997,0 -14.45499969,-6.484 -14.45499969,-14.455 V 25.716 c 0,-7.97 6.48499999,-14.455 14.45499969,-14.455 h 61.091 c 7.97,0 14.454,6.485 14.454,14.455 v 38.567 c 0,7.971 -6.484,14.455 -14.454,14.455 z m -61.091,-63.25 c -5.6399997,0 -10.2279997,4.588 -10.2279997,10.228 v 38.567 c 0,5.64 4.588,10.229 10.2279997,10.229 h 61.091 c 5.64,0 10.228,-4.589 10.228,-10.229 V 25.716 c 0,-5.64 -4.588,-10.228 -10.228,-10.228 z"
   style="opacity:1;fill:#ffffff;fill-rule:nonzero;stroke:none;stroke-width:1;stroke-linecap:butt;stroke-linejoin:miter;stroke-miterlimit:10;stroke-dasharray:none"
   stroke-linecap="round"
   id="path1062" /><path
   d="m 10.329918,25.917 c 10.804,10.528 21.608,21.055 32.412,31.583 2.014,1.962 5.105,-1.122 3.088,-3.088 -10.804,-10.527 -21.608,-21.055 -32.412,-31.582 -2.014,-1.963 -5.1049997,1.122 -3.088,3.087 z"
   style="opacity:1;fill:#ffffff;fill-rule:nonzero;stroke:none;stroke-width:1;stroke-linecap:butt;stroke-linejoin:miter;stroke-miterlimit:10;stroke-dasharray:none"
   stroke-linecap="round"
   id="path1064" /><path
   d="m 45.829918,57.5 c 10.804,-10.527 21.608,-21.055 32.412,-31.582 2.016,-1.965 -1.073,-5.051 -3.088,-3.088 -10.804,10.527 -21.608,21.055 -32.412,31.582 -2.016,1.965 1.073,5.051 3.088,3.088 z"
   style="opacity:1;fill:#ffffff;fill-rule:nonzero;stroke:none;stroke-width:1;stroke-linecap:butt;stroke-linejoin:miter;stroke-miterlimit:10;stroke-dasharray:none"
   stroke-linecap="round"
   id="path1066" /><path
   d="m 78.122918,64.952 c -7.189,-6.818 -13.776677,-12.053903 -20.965677,-18.871903 -2.039,-1.933 -5.734323,-0.432097 -3.690323,1.506903 7.189,6.818 14.379,13.635 21.568,20.453 2.039,1.933 5.132,-1.15 3.088,-3.088 z"
   style="opacity:1;fill:#ffffff;fill-rule:nonzero;stroke:none;stroke-width:1;stroke-linecap:butt;stroke-linejoin:miter;stroke-miterlimit:10;stroke-dasharray:none"
   stroke-linecap="round"
   id="path1068"
   sodipodi:nodetypes="ccccc" /><path
   d="m 13.731918,68.039 c 7.189,-6.818 14.379,-13.635 21.568,-20.453 2.043,-1.938 -1.048,-5.022 -3.088,-3.088 -7.189,6.818 -14.379,13.635 -21.568,20.453 -2.0429997,1.938 1.048,5.023 3.088,3.088 z"
   style="opacity:1;fill:#ffffff;fill-rule:nonzero;stroke:none;stroke-width:1;stroke-linecap:butt;stroke-linejoin:miter;stroke-miterlimit:10;stroke-dasharray:none"
   stroke-linecap="round"
   id="path1070" /><path
   d="m 74.831918,78.738 h -61.091 c -7.9709997,0 -14.45499969,-6.484 -14.45499969,-14.455 V 25.716 c 0,-7.97 6.48499999,-14.455 14.45499969,-14.455 h 61.091 c 7.97,0 14.454,6.485 14.454,14.455 v 38.567 c 0,7.971 -6.484,14.455 -14.454,14.455 z m -61.091,-63.25 c -5.6399997,0 -10.2279997,4.588 -10.2279997,10.228 v 38.567 c 0,5.64 4.588,10.229 10.2279997,10.229 h 61.091 c 5.64,0 10.228,-4.589 10.228,-10.229 V 25.716 c 0,-5.64 -4.588,-10.228 -10.228,-10.228 z"
   style="opacity:1;fill:#ffffff;fill-rule:nonzero;stroke:none;stroke-width:1;stroke-linecap:butt;stroke-linejoin:miter;stroke-miterlimit:10;stroke-dasharray:none"
   stroke-linecap="round"
   id="path1072" /><path
   d="m 10.329918,25.917 c 10.804,10.528 21.608,21.055 32.412,31.583 2.014,1.962 5.105,-1.122 3.088,-3.088 -10.804,-10.527 -21.608,-21.055 -32.412,-31.582 -2.014,-1.963 -5.1049997,1.122 -3.088,3.087 z"
   style="opacity:1;fill:#ffffff;fill-rule:nonzero;stroke:none;stroke-width:1;stroke-linecap:butt;stroke-linejoin:miter;stroke-miterlimit:10;stroke-dasharray:none"
   stroke-linecap="round"
   id="path1074" /><path
   d="m 45.829918,57.5 c 10.804,-10.527 21.608,-21.055 32.412,-31.582 2.016,-1.965 -1.073,-5.051 -3.088,-3.088 -10.804,10.527 -21.608,21.055 -32.412,31.582 -2.016,1.965 1.073,5.051 3.088,3.088 z"
   style="opacity:1;fill:#ffffff;fill-rule:nonzero;stroke:none;stroke-width:1;stroke-linecap:butt;stroke-linejoin:miter;stroke-miterlimit:10;stroke-dasharray:none"
   stroke-linecap="round"
   id="path1076" /><path
   d="m 78.122918,64.952 c -7.189,-6.818 -13.776677,-12.053903 -20.965677,-18.871903 -2.039,-1.933 -5.734323,-0.432097 -3.690323,1.506903 7.189,6.818 14.379,13.635 21.568,20.453 2.039,1.933 5.132,-1.15 3.088,-3.088 z"
   style="opacity:1;fill:#ffffff;fill-rule:nonzero;stroke:none;stroke-width:1;stroke-linecap:butt;stroke-linejoin:miter;stroke-miterlimit:10;stroke-dasharray:none"
   stroke-linecap="round"
   id="path1078"
   sodipodi:nodetypes="ccccc" /><path
   d="m 13.731918,68.039 c 7.189,-6.818 14.379,-13.635 21.568,-20.453 2.043,-1.938 -1.048,-5.022 -3.088,-3.088 -7.189,6.818 -14.379,13.635 -21.568,20.453 -2.0429997,1.938 1.048,5.023 3.088,3.088 z"
   style="opacity:1;fill:#ffffff;fill-rule:nonzero;stroke:none;stroke-width:1;stroke-linecap:butt;stroke-linejoin:miter;stroke-miterlimit:10;stroke-dasharray:none"
   stroke-linecap="round"
   id="path1080" /><path
   d="m 74.831918,78.738 h -61.091 c -7.9709997,0 -14.45499969,-6.484 -14.45499969,-14.455 V 25.716 c 0,-7.97 6.48499999,-14.455 14.45499969,-14.455 h 61.091 c 7.97,0 14.454,6.485 14.454,14.455 v 38.567 c 0,7.971 -6.484,14.455 -14.454,14.455 z m -61.091,-63.25 c -5.6399997,0 -10.2279997,4.588 -10.2279997,10.228 v 38.567 c 0,5.64 4.588,10.229 10.2279997,10.229 h 61.091 c 5.64,0 10.228,-4.589 10.228,-10.229 V 25.716 c 0,-5.64 -4.588,-10.228 -10.228,-10.228 z"
   style="opacity:1;fill:#ffffff;fill-rule:nonzero;stroke:none;stroke-width:1;stroke-linecap:butt;stroke-linejoin:miter;stroke-miterlimit:10;stroke-dasharray:none"
   stroke-linecap="round"
   id="path1082" /><path
   d="m 76.260082,78.738 h -61.091 C 7.1980817,78.738 0.71408169,72.254 0.71408169,64.283 V 25.716 c 0,-7.97 6.48500001,-14.455 14.45500031,-14.455 h 61.091 c 7.97,0 14.454,6.485 14.454,14.455 v 38.567 c 0,7.971 -6.484,14.455 -14.454,14.455 z m -61.091,-63.25 c -5.6400003,0 -10.2280003,4.588 -10.2280003,10.228 v 38.567 c 0,5.64 4.588,10.229 10.2280003,10.229 h 61.091 c 5.64,0 10.228,-4.589 10.228,-10.229 V 25.716 c 0,-5.64 -4.588,-10.228 -10.228,-10.228 z"
   style="opacity:1;fill:#ffffff;fill-rule:nonzero;stroke:none;stroke-width:1;stroke-linecap:butt;stroke-linejoin:miter;stroke-miterlimit:10;stroke-dasharray:none"
   stroke-linecap="round"
   id="path1084" /><path
   d="m 11.758082,25.917 c 10.804,10.528 21.608,21.055 32.412,31.583 2.014,1.962 5.105,-1.122 3.088,-3.088 -10.804,-10.527 -21.608,-21.055 -32.412,-31.582 -2.014,-1.963 -5.1050003,1.122 -3.088,3.087 z"
   style="opacity:1;fill:#ffffff;fill-rule:nonzero;stroke:none;stroke-width:1;stroke-linecap:butt;stroke-linejoin:miter;stroke-miterlimit:10;stroke-dasharray:none"
   stroke-linecap="round"
   id="path1086" /><path
   d="m 47.258082,57.5 c 10.804,-10.527 21.608,-21.055 32.412,-31.582 2.016,-1.965 -1.073,-5.051 -3.088,-3.088 -10.804,10.527 -21.608,21.055 -32.412,31.582 -2.016,1.965 1.073,5.051 3.088,3.088 z"
   style="opacity:1;fill:#ffffff;fill-rule:nonzero;stroke:none;stroke-width:1;stroke-linecap:butt;stroke-linejoin:miter;stroke-miterlimit:10;stroke-dasharray:none"
   stroke-linecap="round"
   id="path1088" /><path
   d="m 79.551082,64.952 c -7.189,-6.818 -13.776677,-12.053903 -20.965677,-18.871903 -2.039,-1.933 -5.734323,-0.432097 -3.690323,1.506903 7.189,6.818 14.379,13.635 21.568,20.453 2.039,1.933 5.132,-1.15 3.088,-3.088 z"
   style="opacity:1;fill:#ffffff;fill-rule:nonzero;stroke:none;stroke-width:1;stroke-linecap:butt;stroke-linejoin:miter;stroke-miterlimit:10;stroke-dasharray:none"
   stroke-linecap="round"
   id="path1090"
   sodipodi:nodetypes="ccccc" /><path
   d="m 15.160082,68.039 c 7.189,-6.818 14.379,-13.635 21.568,-20.453 2.043,-1.938 -1.048,-5.022 -3.088,-3.088 -7.189,6.818 -14.379,13.635 -21.568,20.453 -2.043,1.938 1.048,5.023 3.088,3.088 z"
   style="opacity:1;fill:#ffffff;fill-rule:nonzero;stroke:none;stroke-width:1;stroke-linecap:butt;stroke-linejoin:miter;stroke-miterlimit:10;stroke-dasharray:none"
   stroke-linecap="round"
   id="path1092" /><path
   d="m 76.260082,78.738 h -61.091 C 7.1980817,78.738 0.71408169,72.254 0.71408169,64.283 V 25.716 c 0,-7.97 6.48500001,-14.455 14.45500031,-14.455 h 61.091 c 7.97,0 14.454,6.485 14.454,14.455 v 38.567 c 0,7.971 -6.484,14.455 -14.454,14.455 z m -61.091,-63.25 c -5.6400003,0 -10.2280003,4.588 -10.2280003,10.228 v 38.567 c 0,5.64 4.588,10.229 10.2280003,10.229 h 61.091 c 5.64,0 10.228,-4.589 10.228,-10.229 V 25.716 c 0,-5.64 -4.588,-10.228 -10.228,-10.228 z"
   style="opacity:1;fill:#ffffff;fill-rule:nonzero;stroke:none;stroke-width:1;stroke-linecap:butt;stroke-linejoin:miter;stroke-miterlimit:10;stroke-dasharray:none"
   stroke-linecap="round"
   id="path1094" /><path
   d="m 11.758082,25.917 c 10.804,10.528 21.608,21.055 32.412,31.583 2.014,1.962 5.105,-1.122 3.088,-3.088 -10.804,-10.527 -21.608,-21.055 -32.412,-31.582 -2.014,-1.963 -5.1050003,1.122 -3.088,3.087 z"
   style="opacity:1;fill:#ffffff;fill-rule:nonzero;stroke:none;stroke-width:1;stroke-linecap:butt;stroke-linejoin:miter;stroke-miterlimit:10;stroke-dasharray:none"
   stroke-linecap="round"
   id="path1096" /><path
   d="m 47.258082,57.5 c 10.804,-10.527 21.608,-21.055 32.412,-31.582 2.016,-1.965 -1.073,-5.051 -3.088,-3.088 -10.804,10.527 -21.608,21.055 -32.412,31.582 -2.016,1.965 1.073,5.051 3.088,3.088 z"
   style="opacity:1;fill:#ffffff;fill-rule:nonzero;stroke:none;stroke-width:1;stroke-linecap:butt;stroke-linejoin:miter;stroke-miterlimit:10;stroke-dasharray:none"
   stroke-linecap="round"
   id="path1098" /><path
   d="m 79.551082,64.952 c -7.189,-6.818 -13.776677,-12.053903 -20.965677,-18.871903 -2.039,-1.933 -5.734323,-0.432097 -3.690323,1.506903 7.189,6.818 14.379,13.635 21.568,20.453 2.039,1.933 5.132,-1.15 3.088,-3.088 z"
   style="opacity:1;fill:#ffffff;fill-rule:nonzero;stroke:none;stroke-width:1;stroke-linecap:butt;stroke-linejoin:miter;stroke-miterlimit:10;stroke-dasharray:none"
   stroke-linecap="round"
   id="path1100"
   sodipodi:nodetypes="ccccc" /><path
   d="m 15.160082,68.039 c 7.189,-6.818 14.379,-13.635 21.568,-20.453 2.043,-1.938 -1.048,-5.022 -3.088,-3.088 -7.189,6.818 -14.379,13.635 -21.568,20.453 -2.043,1.938 1.048,5.023 3.088,3.088 z"
   style="opacity:1;fill:#ffffff;fill-rule:nonzero;stroke:none;stroke-width:1;stroke-linecap:butt;stroke-linejoin:miter;stroke-miterlimit:10;stroke-dasharray:none"
   stroke-linecap="round"
   id="path1102" /><path
   d="m 76.260082,78.738 h -61.091 C 7.1980817,78.738 0.71408169,72.254 0.71408169,64.283 V 25.716 c 0,-7.97 6.48500001,-14.455 14.45500031,-14.455 h 61.091 c 7.97,0 14.454,6.485 14.454,14.455 v 38.567 c 0,7.971 -6.484,14.455 -14.454,14.455 z m -61.091,-63.25 c -5.6400003,0 -10.2280003,4.588 -10.2280003,10.228 v 38.567 c 0,5.64 4.588,10.229 10.2280003,10.229 h 61.091 c 5.64,0 10.228,-4.589 10.228,-10.229 V 25.716 c 0,-5.64 -4.588,-10.228 -10.228,-10.228 z"
   style="opacity:1;fill:#ffffff;fill-rule:nonzero;stroke:none;stroke-width:1;stroke-linecap:butt;stroke-linejoin:miter;stroke-miterlimit:10;stroke-dasharray:none"
   stroke-linecap="round"
   id="path1104" /><path
   d="M 75.546,79.452082 H 14.455 c -7.971,0 -14.455,-6.484 -14.455,-14.455 v -38.567 c 0,-7.97 6.485,-14.455 14.455,-14.455 h 61.091 c 7.97,0 14.454,6.485 14.454,14.455 v 38.567 c 0,7.971 -6.484,14.455 -14.454,14.455 z m -61.091,-63.25 c -5.64,0 -10.228,4.588 -10.228,10.228 v 38.567 c 0,5.64 4.588,10.229 10.228,10.229 h 61.091 c 5.64,0 10.228,-4.589 10.228,-10.229 v -38.567 c 0,-5.64 -4.588,-10.228 -10.228,-10.228 z"
   style="opacity:1;fill:#ffffff;fill-rule:nonzero;stroke:none;stroke-width:1;stroke-linecap:butt;stroke-linejoin:miter;stroke-miterlimit:10;stroke-dasharray:none"
   stroke-linecap="round"
   id="path1106" /><path
   d="m 11.044,26.631082 c 10.804,10.528 21.608,21.055 32.412,31.583 2.014,1.962 5.105,-1.122 3.088,-3.088 -10.804,-10.527 -21.608,-21.055 -32.412,-31.582 -2.014,-1.963 -5.105,1.122 -3.088,3.087 z"
   style="opacity:1;fill:#ffffff;fill-rule:nonzero;stroke:none;stroke-width:1;stroke-linecap:butt;stroke-linejoin:miter;stroke-miterlimit:10;stroke-dasharray:none"
   stroke-linecap="round"
   id="path1108" /><path
   d="m 46.544,58.214082 c 10.804,-10.527 21.608,-21.055 32.412,-31.582 2.016,-1.965 -1.073,-5.051 -3.088,-3.088 -10.804,10.527 -21.608,21.055 -32.412,31.582 -2.016,1.965 1.073,5.051 3.088,3.088 z"
   style="opacity:1;fill:#ffffff;fill-rule:nonzero;stroke:none;stroke-width:1;stroke-linecap:butt;stroke-linejoin:miter;stroke-miterlimit:10;stroke-dasharray:none"
   stroke-linecap="round"
   id="path1110" /><path
   d="m 78.837,65.666082 c -7.189,-6.818 -13.776677,-12.053903 -20.965677,-18.871903 -2.039,-1.933 -5.734323,-0.432097 -3.690323,1.506903 7.189,6.818 14.379,13.635 21.568,20.453 2.039,1.933 5.132,-1.15 3.088,-3.088 z"
   style="opacity:1;fill:#ffffff;fill-rule:nonzero;stroke:none;stroke-width:1;stroke-linecap:butt;stroke-linejoin:miter;stroke-miterlimit:10;stroke-dasharray:none"
   stroke-linecap="round"
   id="path1112"
   sodipodi:nodetypes="ccccc" /><path
   d="m 14.446,68.753082 c 7.189,-6.818 14.379,-13.635 21.568,-20.453 2.043,-1.938 -1.048,-5.022 -3.088,-3.088 -7.189,6.818 -14.379,13.635 -21.568,20.453 -2.0429997,1.938 1.048,5.023 3.088,3.088 z"
   style="opacity:1;fill:#ffffff;fill-rule:nonzero;stroke:none;stroke-width:1;stroke-linecap:butt;stroke-linejoin:miter;stroke-miterlimit:10;stroke-dasharray:none"
   stroke-linecap="round"
   id="path1114" /><path
   d="M 75.546,79.452082 H 14.455 c -7.971,0 -14.455,-6.484 -14.455,-14.455 v -38.567 c 0,-7.97 6.485,-14.455 14.455,-14.455 h 61.091 c 7.97,0 14.454,6.485 14.454,14.455 v 38.567 c 0,7.971 -6.484,14.455 -14.454,14.455 z m -61.091,-63.25 c -5.64,0 -10.228,4.588 -10.228,10.228 v 38.567 c 0,5.64 4.588,10.229 10.228,10.229 h 61.091 c 5.64,0 10.228,-4.589 10.228,-10.229 v -38.567 c 0,-5.64 -4.588,-10.228 -10.228,-10.228 z"
   style="opacity:1;fill:#ffffff;fill-rule:nonzero;stroke:none;stroke-width:1;stroke-linecap:butt;stroke-linejoin:miter;stroke-miterlimit:10;stroke-dasharray:none"
   stroke-linecap="round"
   id="path1116" /><path
   d="m 11.044,26.631082 c 10.804,10.528 21.608,21.055 32.412,31.583 2.014,1.962 5.105,-1.122 3.088,-3.088 -10.804,-10.527 -21.608,-21.055 -32.412,-31.582 -2.014,-1.963 -5.105,1.122 -3.088,3.087 z"
   style="opacity:1;fill:#ffffff;fill-rule:nonzero;stroke:none;stroke-width:1;stroke-linecap:butt;stroke-linejoin:miter;stroke-miterlimit:10;stroke-dasharray:none"
   stroke-linecap="round"
   id="path1118" /><path
   d="m 46.544,58.214082 c 10.804,-10.527 21.608,-21.055 32.412,-31.582 2.016,-1.965 -1.073,-5.051 -3.088,-3.088 -10.804,10.527 -21.608,21.055 -32.412,31.582 -2.016,1.965 1.073,5.051 3.088,3.088 z"
   style="opacity:1;fill:#ffffff;fill-rule:nonzero;stroke:none;stroke-width:1;stroke-linecap:butt;stroke-linejoin:miter;stroke-miterlimit:10;stroke-dasharray:none"
   stroke-linecap="round"
   id="path1120" /><path
   d="m 78.837,65.666082 c -7.189,-6.818 -13.776677,-12.053903 -20.965677,-18.871903 -2.039,-1.933 -5.734323,-0.432097 -3.690323,1.506903 7.189,6.818 14.379,13.635 21.568,20.453 2.039,1.933 5.132,-1.15 3.088,-3.088 z"
   style="opacity:1;fill:#ffffff;fill-rule:nonzero;stroke:none;stroke-width:1;stroke-linecap:butt;stroke-linejoin:miter;stroke-miterlimit:10;stroke-dasharray:none"
   stroke-linecap="round"
   id="path1122"
   sodipodi:nodetypes="ccccc" /><path
   d="m 14.446,68.753082 c 7.189,-6.818 14.379,-13.635 21.568,-20.453 2.043,-1.938 -1.048,-5.022 -3.088,-3.088 -7.189,6.818 -14.379,13.635 -21.568,20.453 -2.0429997,1.938 1.048,5.023 3.088,3.088 z"
   style="opacity:1;fill:#ffffff;fill-rule:nonzero;stroke:none;stroke-width:1;stroke-linecap:butt;stroke-linejoin:miter;stroke-miterlimit:10;stroke-dasharray:none"
   stroke-linecap="round"
   id="path1124" /><path
   d="M 75.546,79.452082 H 14.455 c -7.971,0 -14.455,-6.484 -14.455,-14.455 v -38.567 c 0,-7.97 6.485,-14.455 14.455,-14.455 h 61.091 c 7.97,0 14.454,6.485 14.454,14.455 v 38.567 c 0,7.971 -6.484,14.455 -14.454,14.455 z m -61.091,-63.25 c -5.64,0 -10.228,4.588 -10.228,10.228 v 38.567 c 0,5.64 4.588,10.229 10.228,10.229 h 61.091 c 5.64,0 10.228,-4.589 10.228,-10.229 v -38.567 c 0,-5.64 -4.588,-10.228 -10.228,-10.228 z"
   style="opacity:1;fill:#ffffff;fill-rule:nonzero;stroke:none;stroke-width:1;stroke-linecap:butt;stroke-linejoin:miter;stroke-miterlimit:10;stroke-dasharray:none"
   stroke-linecap="round"
   id="path1126" /><path
   d="m 76.260082,78.023918 h -61.091 c -7.9710003,0 -14.45500031,-6.484 -14.45500031,-14.455 v -38.567 c 0,-7.97 6.48500001,-14.455 14.45500031,-14.455 h 61.091 c 7.97,0 14.454,6.485 14.454,14.455 v 38.567 c 0,7.971 -6.484,14.455 -14.454,14.455 z m -61.091,-63.25 c -5.6400003,0 -10.2280003,4.588 -10.2280003,10.228 v 38.567 c 0,5.64 4.588,10.229 10.2280003,10.229 h 61.091 c 5.64,0 10.228,-4.589 10.228,-10.229 v -38.567 c 0,-5.64 -4.588,-10.228 -10.228,-10.228 z"
   style="opacity:1;fill:#ffffff;fill-rule:nonzero;stroke:none;stroke-width:1;stroke-linecap:butt;stroke-linejoin:miter;stroke-miterlimit:10;stroke-dasharray:none"
   stroke-linecap="round"
   id="path1128" /><path
   d="m 11.758082,25.202918 c 10.804,10.528 21.608,21.055 32.412,31.583 2.014,1.962 5.105,-1.122 3.088,-3.088 -10.804,-10.527 -21.608,-21.055 -32.412,-31.582 -2.014,-1.963 -5.1050003,1.122 -3.088,3.087 z"
   style="opacity:1;fill:#ffffff;fill-rule:nonzero;stroke:none;stroke-width:1;stroke-linecap:butt;stroke-linejoin:miter;stroke-miterlimit:10;stroke-dasharray:none"
   stroke-linecap="round"
   id="path1130" /><path
   d="m 47.258082,56.785918 c 10.804,-10.527 21.608,-21.055 32.412,-31.582 2.016,-1.965 -1.073,-5.051 -3.088,-3.088 -10.804,10.527 -21.608,21.055 -32.412,31.582 -2.016,1.965 1.073,5.051 3.088,3.088 z"
   style="opacity:1;fill:#ffffff;fill-rule:nonzero;stroke:none;stroke-width:1;stroke-linecap:butt;stroke-linejoin:miter;stroke-miterlimit:10;stroke-dasharray:none"
   stroke-linecap="round"
   id="path1132" /><path
   d="m 79.551082,64.237918 c -7.189,-6.818 -13.776677,-12.053903 -20.965677,-18.871903 -2.039,-1.933 -5.734323,-0.432097 -3.690323,1.506903 7.189,6.818 14.379,13.635 21.568,20.453 2.039,1.933 5.132,-1.15 3.088,-3.088 z"
   style="opacity:1;fill:#ffffff;fill-rule:nonzero;stroke:none;stroke-width:1;stroke-linecap:butt;stroke-linejoin:miter;stroke-miterlimit:10;stroke-dasharray:none"
   stroke-linecap="round"
   id="path1134"
   sodipodi:nodetypes="ccccc" /><path
   d="m 15.160082,67.324918 c 7.189,-6.818 14.379,-13.635 21.568,-20.453 2.043,-1.938 -1.048,-5.022 -3.088,-3.088 -7.189,6.818 -14.379,13.635 -21.568,20.453 -2.043,1.938 1.048,5.023 3.088,3.088 z"
   style="opacity:1;fill:#ffffff;fill-rule:nonzero;stroke:none;stroke-width:1;stroke-linecap:butt;stroke-linejoin:miter;stroke-miterlimit:10;stroke-dasharray:none"
   stroke-linecap="round"
   id="path1136" /><path
   d="m 76.260082,78.023918 h -61.091 c -7.9710003,0 -14.45500031,-6.484 -14.45500031,-14.455 v -38.567 c 0,-7.97 6.48500001,-14.455 14.45500031,-14.455 h 61.091 c 7.97,0 14.454,6.485 14.454,14.455 v 38.567 c 0,7.971 -6.484,14.455 -14.454,14.455 z m -61.091,-63.25 c -5.6400003,0 -10.2280003,4.588 -10.2280003,10.228 v 38.567 c 0,5.64 4.588,10.229 10.2280003,10.229 h 61.091 c 5.64,0 10.228,-4.589 10.228,-10.229 v -38.567 c 0,-5.64 -4.588,-10.228 -10.228,-10.228 z"
   style="opacity:1;fill:#ffffff;fill-rule:nonzero;stroke:none;stroke-width:1;stroke-linecap:butt;stroke-linejoin:miter;stroke-miterlimit:10;stroke-dasharray:none"
   stroke-linecap="round"
   id="path1138" /><path
   d="m 11.758082,25.202918 c 10.804,10.528 21.608,21.055 32.412,31.583 2.014,1.962 5.105,-1.122 3.088,-3.088 -10.804,-10.527 -21.608,-21.055 -32.412,-31.582 -2.014,-1.963 -5.1050003,1.122 -3.088,3.087 z"
   style="opacity:1;fill:#ffffff;fill-rule:nonzero;stroke:none;stroke-width:1;stroke-linecap:butt;stroke-linejoin:miter;stroke-miterlimit:10;stroke-dasharray:none"
   stroke-linecap="round"
   id="path1140" /><path
   d="m 47.258082,56.785918 c 10.804,-10.527 21.608,-21.055 32.412,-31.582 2.016,-1.965 -1.073,-5.051 -3.088,-3.088 -10.804,10.527 -21.608,21.055 -32.412,31.582 -2.016,1.965 1.073,5.051 3.088,3.088 z"
   style="opacity:1;fill:#ffffff;fill-rule:nonzero;stroke:none;stroke-width:1;stroke-linecap:butt;stroke-linejoin:miter;stroke-miterlimit:10;stroke-dasharray:none"
   stroke-linecap="round"
   id="path1142" /><path
   d="m 79.551082,64.237918 c -7.189,-6.818 -13.776677,-12.053903 -20.965677,-18.871903 -2.039,-1.933 -5.734323,-0.432097 -3.690323,1.506903 7.189,6.818 14.379,13.635 21.568,20.453 2.039,1.933 5.132,-1.15 3.088,-3.088 z"
   style="opacity:1;fill:#ffffff;fill-rule:nonzero;stroke:none;stroke-width:1;stroke-linecap:butt;stroke-linejoin:miter;stroke-miterlimit:10;stroke-dasharray:none"
   stroke-linecap="round"
   id="path1144"
   sodipodi:nodetypes="ccccc" /><path
   d="m 15.160082,67.324918 c 7.189,-6.818 14.379,-13.635 21.568,-20.453 2.043,-1.938 -1.048,-5.022 -3.088,-3.088 -7.189,6.818 -14.379,13.635 -21.568,20.453 -2.043,1.938 1.048,5.023 3.088,3.088 z"
   style="opacity:1;fill:#ffffff;fill-rule:nonzero;stroke:none;stroke-width:1;stroke-linecap:butt;stroke-linejoin:miter;stroke-miterlimit:10;stroke-dasharray:none"
   stroke-linecap="round"
   id="path1146" /><path
   d="m 76.260082,78.023918 h -61.091 c -7.9710003,0 -14.45500031,-6.484 -14.45500031,-14.455 v -38.567 c 0,-7.97 6.48500001,-14.455 14.45500031,-14.455 h 61.091 c 7.97,0 14.454,6.485 14.454,14.455 v 38.567 c 0,7.971 -6.484,14.455 -14.454,14.455 z m -61.091,-63.25 c -5.6400003,0 -10.2280003,4.588 -10.2280003,10.228 v 38.567 c 0,5.64 4.588,10.229 10.2280003,10.229 h 61.091 c 5.64,0 10.228,-4.589 10.228,-10.229 v -38.567 c 0,-5.64 -4.588,-10.228 -10.228,-10.228 z"
   style="opacity:1;fill:#ffffff;fill-rule:nonzero;stroke:none;stroke-width:1;stroke-linecap:butt;stroke-linejoin:miter;stroke-miterlimit:10;stroke-dasharray:none"
   stroke-linecap="round"
   id="path1148" /><path
   d="m 74.831918,78.023918 h -61.091 c -7.9709997,0 -14.45499969,-6.484 -14.45499969,-14.455 v -38.567 c 0,-7.97 6.48499999,-14.455 14.45499969,-14.455 h 61.091 c 7.97,0 14.454,6.485 14.454,14.455 v 38.567 c 0,7.971 -6.484,14.455 -14.454,14.455 z m -61.091,-63.25 c -5.6399997,0 -10.2279997,4.588 -10.2279997,10.228 v 38.567 c 0,5.64 4.588,10.229 10.2279997,10.229 h 61.091 c 5.64,0 10.228,-4.589 10.228,-10.229 v -38.567 c 0,-5.64 -4.588,-10.228 -10.228,-10.228 z"
   style="opacity:1;fill:#ffffff;fill-rule:nonzero;stroke:none;stroke-width:1;stroke-linecap:butt;stroke-linejoin:miter;stroke-miterlimit:10;stroke-dasharray:none"
   stroke-linecap="round"
   id="path1150" /><path
   d="m 10.329918,25.202918 c 10.804,10.528 21.608,21.055 32.412,31.583 2.014,1.962 5.105,-1.122 3.088,-3.088 -10.804,-10.527 -21.608,-21.055 -32.412,-31.582 -2.014,-1.963 -5.1049997,1.122 -3.088,3.087 z"
   style="opacity:1;fill:#ffffff;fill-rule:nonzero;stroke:none;stroke-width:1;stroke-linecap:butt;stroke-linejoin:miter;stroke-miterlimit:10;stroke-dasharray:none"
   stroke-linecap="round"
   id="path1152" /><path
   d="m 45.829918,56.785918 c 10.804,-10.527 21.608,-21.055 32.412,-31.582 2.016,-1.965 -1.073,-5.051 -3.088,-3.088 -10.804,10.527 -21.608,21.055 -32.412,31.582 -2.016,1.965 1.073,5.051 3.088,3.088 z"
   style="opacity:1;fill:#ffffff;fill-rule:nonzero;stroke:none;stroke-width:1;stroke-linecap:butt;stroke-linejoin:miter;stroke-miterlimit:10;stroke-dasharray:none"
   stroke-linecap="round"
   id="path1154" /><path
   d="m 78.122918,64.237918 c -7.189,-6.818 -13.776677,-12.053903 -20.965677,-18.871903 -2.039,-1.933 -5.734323,-0.432097 -3.690323,1.506903 7.189,6.818 14.379,13.635 21.568,20.453 2.039,1.933 5.132,-1.15 3.088,-3.088 z"
   style="opacity:1;fill:#ffffff;fill-rule:nonzero;stroke:none;stroke-width:1;stroke-linecap:butt;stroke-linejoin:miter;stroke-miterlimit:10;stroke-dasharray:none"
   stroke-linecap="round"
   id="path1156"
   sodipodi:nodetypes="ccccc" /><path
   d="m 13.731918,67.324918 c 7.189,-6.818 14.379,-13.635 21.568,-20.453 2.043,-1.938 -1.048,-5.022 -3.088,-3.088 -7.189,6.818 -14.379,13.635 -21.568,20.453 -2.0429994,1.938 1.048,5.023 3.088,3.088 z"
   style="opacity:1;fill:#ffffff;fill-rule:nonzero;stroke:none;stroke-width:1;stroke-linecap:butt;stroke-linejoin:miter;stroke-miterlimit:10;stroke-dasharray:none"
   stroke-linecap="round"
   id="path1158" /><path
   d="m 74.831918,78.023918 h -61.091 c -7.9709997,0 -14.45499969,-6.484 -14.45499969,-14.455 v -38.567 c 0,-7.97 6.48499999,-14.455 14.45499969,-14.455 h 61.091 c 7.97,0 14.454,6.485 14.454,14.455 v 38.567 c 0,7.971 -6.484,14.455 -14.454,14.455 z m -61.091,-63.25 c -5.6399997,0 -10.2279997,4.588 -10.2279997,10.228 v 38.567 c 0,5.64 4.588,10.229 10.2279997,10.229 h 61.091 c 5.64,0 10.228,-4.589 10.228,-10.229 v -38.567 c 0,-5.64 -4.588,-10.228 -10.228,-10.228 z"
   style="opacity:1;fill:#ffffff;fill-rule:nonzero;stroke:none;stroke-width:1;stroke-linecap:butt;stroke-linejoin:miter;stroke-miterlimit:10;stroke-dasharray:none"
   stroke-linecap="round"
   id="path1160" /><path
   d="m 10.329918,25.202918 c 10.804,10.528 21.608,21.055 32.412,31.583 2.014,1.962 5.105,-1.122 3.088,-3.088 -10.804,-10.527 -21.608,-21.055 -32.412,-31.582 -2.014,-1.963 -5.1049997,1.122 -3.088,3.087 z"
   style="opacity:1;fill:#ffffff;fill-rule:nonzero;stroke:none;stroke-width:1;stroke-linecap:butt;stroke-linejoin:miter;stroke-miterlimit:10;stroke-dasharray:none"
   stroke-linecap="round"
   id="path1162" /><path
   d="m 45.829918,56.785918 c 10.804,-10.527 21.608,-21.055 32.412,-31.582 2.016,-1.965 -1.073,-5.051 -3.088,-3.088 -10.804,10.527 -21.608,21.055 -32.412,31.582 -2.016,1.965 1.073,5.051 3.088,3.088 z"
   style="opacity:1;fill:#ffffff;fill-rule:nonzero;stroke:none;stroke-width:1;stroke-linecap:butt;stroke-linejoin:miter;stroke-miterlimit:10;stroke-dasharray:none"
   stroke-linecap="round"
   id="path1164" /><path
   d="m 78.122918,64.237918 c -7.189,-6.818 -13.776677,-12.053903 -20.965677,-18.871903 -2.039,-1.933 -5.734323,-0.432097 -3.690323,1.506903 7.189,6.818 14.379,13.635 21.568,20.453 2.039,1.933 5.132,-1.15 3.088,-3.088 z"
   style="opacity:1;fill:#ffffff;fill-rule:nonzero;stroke:none;stroke-width:1;stroke-linecap:butt;stroke-linejoin:miter;stroke-miterlimit:10;stroke-dasharray:none"
   stroke-linecap="round"
   id="path1166"
   sodipodi:nodetypes="ccccc" /><path
   d="m 13.731918,67.324918 c 7.189,-6.818 14.379,-13.635 21.568,-20.453 2.043,-1.938 -1.048,-5.022 -3.088,-3.088 -7.189,6.818 -14.379,13.635 -21.568,20.453 -2.0429994,1.938 1.048,5.023 3.088,3.088 z"
   style="opacity:1;fill:#ffffff;fill-rule:nonzero;stroke:none;stroke-width:1;stroke-linecap:butt;stroke-linejoin:miter;stroke-miterlimit:10;stroke-dasharray:none"
   stroke-linecap="round"
   id="path1168" /><path
   d="m 74.831918,78.023918 h -61.091 c -7.9709997,0 -14.45499969,-6.484 -14.45499969,-14.455 v -38.567 c 0,-7.97 6.48499999,-14.455 14.45499969,-14.455 h 61.091 c 7.97,0 14.454,6.485 14.454,14.455 v 38.567 c 0,7.971 -6.484,14.455 -14.454,14.455 z m -61.091,-63.25 c -5.6399997,0 -10.2279997,4.588 -10.2279997,10.228 v 38.567 c 0,5.64 4.588,10.229 10.2279997,10.229 h 61.091 c 5.64,0 10.228,-4.589 10.228,-10.229 v -38.567 c 0,-5.64 -4.588,-10.228 -10.228,-10.228 z"
   style="opacity:1;fill:#ffffff;fill-rule:nonzero;stroke:none;stroke-width:1;stroke-linecap:butt;stroke-linejoin:miter;stroke-miterlimit:10;stroke-dasharray:none"
   stroke-linecap="round"
   id="path1170" /><path
   d="m 76.260082,79.452082 h -61.091 c -7.9710003,0 -14.45500031,-6.484 -14.45500031,-14.455 v -38.567 c 0,-7.97 6.48500001,-14.455 14.45500031,-14.455 h 61.091 c 7.97,0 14.454,6.485 14.454,14.455 v 38.567 c 0,7.971 -6.484,14.455 -14.454,14.455 z m -61.091,-63.25 c -5.6400003,0 -10.2280003,4.588 -10.2280003,10.228 v 38.567 c 0,5.64 4.588,10.229 10.2280003,10.229 h 61.091 c 5.64,0 10.228,-4.589 10.228,-10.229 v -38.567 c 0,-5.64 -4.588,-10.228 -10.228,-10.228 z"
   style="opacity:1;fill:#ffffff;fill-rule:nonzero;stroke:none;stroke-width:1;stroke-linecap:butt;stroke-linejoin:miter;stroke-miterlimit:10;stroke-dasharray:none"
   stroke-linecap="round"
   id="path1172" /><path
   d="m 11.758082,26.631082 c 10.804,10.528 21.608,21.055 32.412,31.583 2.014,1.962 5.105,-1.122 3.088,-3.088 -10.804,-10.527 -21.608,-21.055 -32.412,-31.582 -2.014,-1.963 -5.1050003,1.122 -3.088,3.087 z"
   style="opacity:1;fill:#ffffff;fill-rule:nonzero;stroke:none;stroke-width:1;stroke-linecap:butt;stroke-linejoin:miter;stroke-miterlimit:10;stroke-dasharray:none"
   stroke-linecap="round"
   id="path1174" /><path
   d="m 47.258082,58.214082 c 10.804,-10.527 21.608,-21.055 32.412,-31.582 2.016,-1.965 -1.073,-5.051 -3.088,-3.088 -10.804,10.527 -21.608,21.055 -32.412,31.582 -2.016,1.965 1.073,5.051 3.088,3.088 z"
   style="opacity:1;fill:#ffffff;fill-rule:nonzero;stroke:none;stroke-width:1;stroke-linecap:butt;stroke-linejoin:miter;stroke-miterlimit:10;stroke-dasharray:none"
   stroke-linecap="round"
   id="path1176" /><path
   d="m 79.551082,65.666082 c -7.189,-6.818 -13.776677,-12.053903 -20.965677,-18.871903 -2.039,-1.933 -5.734323,-0.432097 -3.690323,1.506903 7.189,6.818 14.379,13.635 21.568,20.453 2.039,1.933 5.132,-1.15 3.088,-3.088 z"
   style="opacity:1;fill:#ffffff;fill-rule:nonzero;stroke:none;stroke-width:1;stroke-linecap:butt;stroke-linejoin:miter;stroke-miterlimit:10;stroke-dasharray:none"
   stroke-linecap="round"
   id="path1178"
   sodipodi:nodetypes="ccccc" /><path
   d="m 15.160082,68.753082 c 7.189,-6.818 14.379,-13.635 21.568,-20.453 2.043,-1.938 -1.048,-5.022 -3.088,-3.088 -7.189,6.818 -14.379,13.635 -21.568,20.453 -2.043,1.938 1.048,5.023 3.088,3.088 z"
   style="opacity:1;fill:#ffffff;fill-rule:nonzero;stroke:none;stroke-width:1;stroke-linecap:butt;stroke-linejoin:miter;stroke-miterlimit:10;stroke-dasharray:none"
   stroke-linecap="round"
   id="path1180" /><path
   d="m 76.260082,79.452082 h -61.091 c -7.9710003,0 -14.45500031,-6.484 -14.45500031,-14.455 v -38.567 c 0,-7.97 6.48500001,-14.455 14.45500031,-14.455 h 61.091 c 7.97,0 14.454,6.485 14.454,14.455 v 38.567 c 0,7.971 -6.484,14.455 -14.454,14.455 z m -61.091,-63.25 c -5.6400003,0 -10.2280003,4.588 -10.2280003,10.228 v 38.567 c 0,5.64 4.588,10.229 10.2280003,10.229 h 61.091 c 5.64,0 10.228,-4.589 10.228,-10.229 v -38.567 c 0,-5.64 -4.588,-10.228 -10.228,-10.228 z"
   style="opacity:1;fill:#ffffff;fill-rule:nonzero;stroke:none;stroke-width:1;stroke-linecap:butt;stroke-linejoin:miter;stroke-miterlimit:10;stroke-dasharray:none"
   stroke-linecap="round"
   id="path1182" /><path
   d="m 11.758082,26.631082 c 10.804,10.528 21.608,21.055 32.412,31.583 2.014,1.962 5.105,-1.122 3.088,-3.088 -10.804,-10.527 -21.608,-21.055 -32.412,-31.582 -2.014,-1.963 -5.1050003,1.122 -3.088,3.087 z"
   style="opacity:1;fill:#ffffff;fill-rule:nonzero;stroke:none;stroke-width:1;stroke-linecap:butt;stroke-linejoin:miter;stroke-miterlimit:10;stroke-dasharray:none"
   stroke-linecap="round"
   id="path1184" /><path
   d="m 47.258082,58.214082 c 10.804,-10.527 21.608,-21.055 32.412,-31.582 2.016,-1.965 -1.073,-5.051 -3.088,-3.088 -10.804,10.527 -21.608,21.055 -32.412,31.582 -2.016,1.965 1.073,5.051 3.088,3.088 z"
   style="opacity:1;fill:#ffffff;fill-rule:nonzero;stroke:none;stroke-width:1;stroke-linecap:butt;stroke-linejoin:miter;stroke-miterlimit:10;stroke-dasharray:none"
   stroke-linecap="round"
   id="path1186" /><path
   d="m 79.551082,65.666082 c -7.189,-6.818 -13.776677,-12.053903 -20.965677,-18.871903 -2.039,-1.933 -5.734323,-0.432097 -3.690323,1.506903 7.189,6.818 14.379,13.635 21.568,20.453 2.039,1.933 5.132,-1.15 3.088,-3.088 z"
   style="opacity:1;fill:#ffffff;fill-rule:nonzero;stroke:none;stroke-width:1;stroke-linecap:butt;stroke-linejoin:miter;stroke-miterlimit:10;stroke-dasharray:none"
   stroke-linecap="round"
   id="path1188"
   sodipodi:nodetypes="ccccc" /><path
   d="m 15.160082,68.753082 c 7.189,-6.818 14.379,-13.635 21.568,-20.453 2.043,-1.938 -1.048,-5.022 -3.088,-3.088 -7.189,6.818 -14.379,13.635 -21.568,20.453 -2.043,1.938 1.048,5.023 3.088,3.088 z"
   style="opacity:1;fill:#ffffff;fill-rule:nonzero;stroke:none;stroke-width:1;stroke-linecap:butt;stroke-linejoin:miter;stroke-miterlimit:10;stroke-dasharray:none"
   stroke-linecap="round"
   id="path1190" /><path
   d="m 76.260082,79.452082 h -61.091 c -7.9710003,0 -14.45500031,-6.484 -14.45500031,-14.455 v -38.567 c 0,-7.97 6.48500001,-14.455 14.45500031,-14.455 h 61.091 c 7.97,0 14.454,6.485 14.454,14.455 v 38.567 c 0,7.971 -6.484,14.455 -14.454,14.455 z m -61.091,-63.25 c -5.6400003,0 -10.2280003,4.588 -10.2280003,10.228 v 38.567 c 0,5.64 4.588,10.229 10.2280003,10.229 h 61.091 c 5.64,0 10.228,-4.589 10.228,-10.229 v -38.567 c 0,-5.64 -4.588,-10.228 -10.228,-10.228 z"
   style="opacity:1;fill:#ffffff;fill-rule:nonzero;stroke:none;stroke-width:1;stroke-linecap:butt;stroke-linejoin:miter;stroke-miterlimit:10;stroke-dasharray:none"
   stroke-linecap="round"
   id="path1192" /><path
   d="m 74.831918,79.452082 h -61.091 c -7.9709997,0 -14.45499969,-6.484 -14.45499969,-14.455 v -38.567 c 0,-7.97 6.48499999,-14.455 14.45499969,-14.455 h 61.091 c 7.97,0 14.454,6.485 14.454,14.455 v 38.567 c 0,7.971 -6.484,14.455 -14.454,14.455 z m -61.091,-63.25 c -5.6399997,0 -10.2279997,4.588 -10.2279997,10.228 v 38.567 c 0,5.64 4.588,10.229 10.2279997,10.229 h 61.091 c 5.64,0 10.228,-4.589 10.228,-10.229 v -38.567 c 0,-5.64 -4.588,-10.228 -10.228,-10.228 z"
   style="opacity:1;fill:#ffffff;fill-rule:nonzero;stroke:none;stroke-width:1;stroke-linecap:butt;stroke-linejoin:miter;stroke-miterlimit:10;stroke-dasharray:none"
   stroke-linecap="round"
   id="path1194" /><path
   d="m 10.329918,26.631082 c 10.804,10.528 21.608,21.055 32.412,31.583 2.014,1.962 5.105,-1.122 3.088,-3.088 -10.804,-10.527 -21.608,-21.055 -32.412,-31.582 -2.014,-1.963 -5.1049997,1.122 -3.088,3.087 z"
   style="opacity:1;fill:#ffffff;fill-rule:nonzero;stroke:none;stroke-width:1;stroke-linecap:butt;stroke-linejoin:miter;stroke-miterlimit:10;stroke-dasharray:none"
   stroke-linecap="round"
   id="path1196" /><path
   d="m 45.829918,58.214082 c 10.804,-10.527 21.608,-21.055 32.412,-31.582 2.016,-1.965 -1.073,-5.051 -3.088,-3.088 -10.804,10.527 -21.608,21.055 -32.412,31.582 -2.016,1.965 1.073,5.051 3.088,3.088 z"
   style="opacity:1;fill:#ffffff;fill-rule:nonzero;stroke:none;stroke-width:1;stroke-linecap:butt;stroke-linejoin:miter;stroke-miterlimit:10;stroke-dasharray:none"
   stroke-linecap="round"
   id="path1198" /><path
   d="m 78.122918,65.666082 c -7.189,-6.818 -13.776677,-12.053903 -20.965677,-18.871903 -2.039,-1.933 -5.734323,-0.432097 -3.690323,1.506903 7.189,6.818 14.379,13.635 21.568,20.453 2.039,1.933 5.132,-1.15 3.088,-3.088 z"
   style="opacity:1;fill:#ffffff;fill-rule:nonzero;stroke:none;stroke-width:1;stroke-linecap:butt;stroke-linejoin:miter;stroke-miterlimit:10;stroke-dasharray:none"
   stroke-linecap="round"
   id="path1200"
   sodipodi:nodetypes="ccccc" /><path
   d="m 13.731918,68.753082 c 7.189,-6.818 14.379,-13.635 21.568,-20.453 2.043,-1.938 -1.048,-5.022 -3.088,-3.088 -7.189,6.818 -14.379,13.635 -21.568,20.453 -2.0429994,1.938 1.048,5.023 3.088,3.088 z"
   style="opacity:1;fill:#ffffff;fill-rule:nonzero;stroke:none;stroke-width:1;stroke-linecap:butt;stroke-linejoin:miter;stroke-miterlimit:10;stroke-dasharray:none"
   stroke-linecap="round"
   id="path1202" /><path
   d="m 74.831918,79.452082 h -61.091 c -7.9709997,0 -14.45499969,-6.484 -14.45499969,-14.455 v -38.567 c 0,-7.97 6.48499999,-14.455 14.45499969,-14.455 h 61.091 c 7.97,0 14.454,6.485 14.454,14.455 v 38.567 c 0,7.971 -6.484,14.455 -14.454,14.455 z m -61.091,-63.25 c -5.6399997,0 -10.2279997,4.588 -10.2279997,10.228 v 38.567 c 0,5.64 4.588,10.229 10.2279997,10.229 h 61.091 c 5.64,0 10.228,-4.589 10.228,-10.229 v -38.567 c 0,-5.64 -4.588,-10.228 -10.228,-10.228 z"
   style="opacity:1;fill:#ffffff;fill-rule:nonzero;stroke:none;stroke-width:1;stroke-linecap:butt;stroke-linejoin:miter;stroke-miterlimit:10;stroke-dasharray:none"
   stroke-linecap="round"
   id="path1204" /><path
   d="m 10.329918,26.631082 c 10.804,10.528 21.608,21.055 32.412,31.583 2.014,1.962 5.105,-1.122 3.088,-3.088 -10.804,-10.527 -21.608,-21.055 -32.412,-31.582 -2.014,-1.963 -5.1049997,1.122 -3.088,3.087 z"
   style="opacity:1;fill:#ffffff;fill-rule:nonzero;stroke:none;stroke-width:1;stroke-linecap:butt;stroke-linejoin:miter;stroke-miterlimit:10;stroke-dasharray:none"
   stroke-linecap="round"
   id="path1206" /><path
   d="m 45.829918,58.214082 c 10.804,-10.527 21.608,-21.055 32.412,-31.582 2.016,-1.965 -1.073,-5.051 -3.088,-3.088 -10.804,10.527 -21.608,21.055 -32.412,31.582 -2.016,1.965 1.073,5.051 3.088,3.088 z"
   style="opacity:1;fill:#ffffff;fill-rule:nonzero;stroke:none;stroke-width:1;stroke-linecap:butt;stroke-linejoin:miter;stroke-miterlimit:10;stroke-dasharray:none"
   stroke-linecap="round"
   id="path1208" /><path
   d="m 78.122918,65.666082 c -7.189,-6.818 -13.776677,-12.053903 -20.965677,-18.871903 -2.039,-1.933 -5.734323,-0.432097 -3.690323,1.506903 7.189,6.818 14.379,13.635 21.568,20.453 2.039,1.933 5.132,-1.15 3.088,-3.088 z"
   style="opacity:1;fill:#ffffff;fill-rule:nonzero;stroke:none;stroke-width:1;stroke-linecap:butt;stroke-linejoin:miter;stroke-miterlimit:10;stroke-dasharray:none"
   stroke-linecap="round"
   id="path1210"
   sodipodi:nodetypes="ccccc" /><path
   d="m 13.731918,68.753082 c 7.189,-6.818 14.379,-13.635 21.568,-20.453 2.043,-1.938 -1.048,-5.022 -3.088,-3.088 -7.189,6.818 -14.379,13.635 -21.568,20.453 -2.0429994,1.938 1.048,5.023 3.088,3.088 z"
   style="opacity:1;fill:#ffffff;fill-rule:nonzero;stroke:none;stroke-width:1;stroke-linecap:butt;stroke-linejoin:miter;stroke-miterlimit:10;stroke-dasharray:none"
   stroke-linecap="round"
   id="path1212" /><path
   d="m 74.831918,79.452082 h -61.091 c -7.9709997,0 -14.45499969,-6.484 -14.45499969,-14.455 v -38.567 c 0,-7.97 6.48499999,-14.455 14.45499969,-14.455 h 61.091 c 7.97,0 14.454,6.485 14.454,14.455 v 38.567 c 0,7.971 -6.484,14.455 -14.454,14.455 z m -61.091,-63.25 c -5.6399997,0 -10.2279997,4.588 -10.2279997,10.228 v 38.567 c 0,5.64 4.588,10.229 10.2279997,10.229 h 61.091 c 5.64,0 10.228,-4.589 10.228,-10.229 v -38.567 c 0,-5.64 -4.588,-10.228 -10.228,-10.228 z"
   style="opacity:1;fill:#ffffff;fill-rule:nonzero;stroke:none;stroke-width:1;stroke-linecap:butt;stroke-linejoin:miter;stroke-miterlimit:10;stroke-dasharray:none"
   stroke-linecap="round"
   id="path1214" /></g>
</g>
</svg>
