<?xml version="1.0" encoding="UTF-8" standalone="no"?>
<svg
   fill="#000000"
   viewBox="2.9 2.9 18.2 18.200001"
   width="36.400002"
   height="36.400002"
   version="1.1"
   id="svg19"
   sodipodi:docname="instagram.svg"
   inkscape:version="1.1.2 (0a00cf5339, 2022-02-04, custom)"
   xmlns:inkscape="http://www.inkscape.org/namespaces/inkscape"
   xmlns:sodipodi="http://sodipodi.sourceforge.net/DTD/sodipodi-0.dtd"
   xmlns="http://www.w3.org/2000/svg"
   xmlns:svg="http://www.w3.org/2000/svg">
  <defs
     id="defs23" />
  <sodipodi:namedview
     id="namedview21"
     pagecolor="#ffffff"
     bordercolor="#666666"
     borderopacity="1.0"
     inkscape:pageshadow="2"
     inkscape:pageopacity="0.0"
     inkscape:pagecheckerboard="0"
     showgrid="false"
     width="36.4px"
     inkscape:zoom="11.188317"
     inkscape:cx="36.824126"
     inkscape:cy="38.611705"
     inkscape:window-width="2560"
     inkscape:window-height="1494"
     inkscape:window-x="-11"
     inkscape:window-y="-11"
     inkscape:window-maximized="1"
     inkscape:current-layer="svg19" />
  <path
     d="M 8,3 C 5.243,3 3,5.243 3,8 v 8 c 0,2.757 2.243,5 5,5 h 8 c 2.757,0 5,-2.243 5,-5 V 8 C 21,5.243 18.757,3 16,3 Z m 0,2 h 8 c 1.654,0 3,1.346 3,3 v 8 c 0,1.654 -1.346,3 -3,3 H 8 C 6.346,19 5,17.654 5,16 V 8 C 5,6.346 6.346,5 8,5 Z m 9,1 a 1,1 0 0 0 -1,1 1,1 0 0 0 1,1 1,1 0 0 0 1,-1 1,1 0 0 0 -1,-1 z m -5,1 c -2.757,0 -5,2.243 -5,5 0,2.757 2.243,5 5,5 2.757,0 5,-2.243 5,-5 0,-2.757 -2.243,-5 -5,-5 z m 0,2 c 1.654,0 3,1.346 3,3 0,1.654 -1.346,3 -3,3 -1.654,0 -3,-1.346 -3,-3 0,-1.654 1.346,-3 3,-3 z"
     id="path17"
     style="fill:#ffffff" />
</svg>
